<svg xmlns="http://www.w3.org/2000/svg" viewBox="0 0 34 25"><defs><style>.cls-1{fill:#a3a3a3;}</style></defs><title>Lock</title><g id="Layer_2" data-name="Layer 2"><polygon class="cls-1" points="16.9 20 16.9 20.1 16.9 20 16.9 20"/><path class="cls-1" d="M33.5,27.4a.8.8,0,0,1-.2-.5,2,2,0,0,0-.6-1.3l-1.6-1.3-.5-.2a.5.5,0,0,0-.4.2.4.4,0,0,1-.4.2.9.9,0,0,1-.6-.3l-.5-.4-.2-.4a1.8,1.8,0,0,0-.6-1.5l-1.6-1.1-.5-.2h-.3l-.4.3c-.2,0-.4-.2-.6-.3l-.5-.4a.6.6,0,0,1-.2-.5,1.7,1.7,0,0,0-.6-1.4l-1.6-1.1c-.1-.2-.3-.2-.5-.2a.9.9,0,0,0-.6.3h-.3l-.6-.5v-.2a.8.8,0,0,1-.2-.5l.8-.6h.3a.9.9,0,0,0,.6.3l.5-.2,1.6-1.2a1.7,1.7,0,0,0,.6-1.4c0-.2.1-.4.2-.4l.9-.7h.3a.9.9,0,0,0,.6.3h.5l1.6-1.3a1.2,1.2,0,0,0,.6-1A1.1,1.1,0,0,1,29.1,9a1,1,0,0,0,.5-.4h.2l.2.2a.9.9,0,0,0,.6.3l.4-.2,1.7-1.2a2.3,2.3,0,0,0,.6-1.3c0-.4.1-.5.2-.6l.2-.3a4.1,4.1,0,0,0,0-1.1l-.5.4h-.4a.9.9,0,0,0-.6-.3l-.5.2L30.1,5.8c-.4.2-.6.7-.6,1.4s-.1.4-.2.4l-.9.7h-.3L27.5,8H27L25.4,9.3a1.4,1.4,0,0,0-.6,1.1,1.1,1.1,0,0,1-.6,1.1l-.5.4h-.4a.9.9,0,0,0-.6-.3l-.5.2-1.6,1.2a1.4,1.4,0,0,0-.5,1,1,1,0,0,1-.7,1.1l-.3.3h-.2a2.7,2.7,0,0,0-2-.9,3,3,0,0,0-1.8.6l-.2.2-.7-.6c-.1,0-.2-.2-.2-.4a2.1,2.1,0,0,0-.7-1.5l-1.5-1.1-.5-.2a1.1,1.1,0,0,0-.7.3h-.3l-.9-.7a.6.6,0,0,1-.2-.5,1.7,1.7,0,0,0-.6-1.4L7.1,8.2A.7.7,0,0,0,6.5,8a.9.9,0,0,0-.6.3H5.6l-.9-.7a.5.5,0,0,1-.2-.4,1.7,1.7,0,0,0-.6-1.4L2.3,4.6a.6.6,0,0,0-.5-.2c-.2,0-.3,0-.4.2L1,4.8a.5.5,0,0,1-.4-.3L.2,4.3V5.6c.3.1.5.2.6.8a1.5,1.5,0,0,0,.5,1.2L3,8.8l.4.2A.9.9,0,0,0,4,8.7h.4l.5.4a1.2,1.2,0,0,1,.6,1.1,1.4,1.4,0,0,0,.5,1l1.7,1.3h.5a.5.5,0,0,0,.5-.3h.5l.4.3c.3.3.7.4.7,1.2a1.2,1.2,0,0,0,.5,1l1.6,1.2.5.2a.9.9,0,0,0,.6-.3h.4a1,1,0,0,0,.5.4,3.1,3.1,0,0,0-.2,1.1l-.4.3h-.3a.9.9,0,0,0-.6-.3.7.7,0,0,0-.6.2l-1.5,1.1a1.8,1.8,0,0,0-.6,1.5.8.8,0,0,1-.2.4l-.9.7H9c-.1,0-.2,0-.2-.1a.9.9,0,0,0-.7-.3l-.5.2L6.1,22a1.7,1.7,0,0,0-.6,1.4c-.1.2-.1.3-.2.4l-.6.5-.5.2c-.1,0-.2,0-.4-.2a.5.5,0,0,0-.4-.2l-.5.2L1.3,25.5a1.7,1.7,0,0,0-.5,1.3c-.1.4-.2.6-.4.7H.2v1.2l.6-.4h.4a.9.9,0,0,0,.6.3c.2,0,.4,0,.5-.2l1.5-1.1a1.8,1.8,0,0,0,.7-1.5l.2-.4.9-.7h.3a.9.9,0,0,0,.6.3L7,25l1.6-1.2a1.4,1.4,0,0,0,.6-1.1,1.1,1.1,0,0,1,.6-1l.5-.4h.3a1.1,1.1,0,0,0,.7.3l.5-.2,1.5-1.1h0v4.4c0,.4.1.6.5.7a11,11,0,0,0,3.1.4,11,11,0,0,0,3.1-.4c.4-.1.5-.3.5-.7V20.6c0-.4-.1-.6-.5-.7a.5.5,0,0,1-.3-.3V18.3h.1c.2.1.2.2.2.4a2.1,2.1,0,0,0,.7,1.5l1.5,1.1.5.2a1.1,1.1,0,0,0,.7-.3h.1c.1,0,.1,0,.1.1l1,.6a.6.6,0,0,1,.2.5,1.6,1.6,0,0,0,.5,1.3A9.6,9.6,0,0,0,27,25h.8l.4-.2.6.3.5.4a.5.5,0,0,1,.2.4,1.8,1.8,0,0,0,.7,1.5l1.5,1.1a.5.5,0,0,0,.5.3l.3-.2a.6.6,0,0,1,.5-.2.9.9,0,0,1,.6.3h.1v-.7A.6.6,0,0,0,33.5,27.4Zm-1.3-22h0c-.3.7-.1,1,.4,1.1a14,14,0,0,1-2,1.6c0-.4.1-.7,0-.9s-.2-.2-.4-.4A7.2,7.2,0,0,1,32.2,5.4ZM27.4,8.9c0,.3-.1.6,0,.8s.3.3.4.4a12.5,12.5,0,0,1-1.9,1.5c0-.3.1-.6,0-.8s-.3-.3-.5-.5Zm-4.7,3.5c-.3.8,0,1.2.4,1.2a5.9,5.9,0,0,1-2,1.5,2.5,2.5,0,0,0,.1-.8c-.1-.2-.3-.2-.5-.4A9.5,9.5,0,0,1,22.7,12.4ZM3.4,7.2c-.1.2,0,.5,0,.9a14.9,14.9,0,0,1-2-1.5c.2-.2.4-.3.5-.5s-.1-.5-.1-.9l2,1.6C3.6,7,3.4,7,3.4,7.2Zm4.7,3.6c-.1.2,0,.5,0,.7h0a7.7,7.7,0,0,1-1.9-1.4c.1-.1.3-.2.4-.4s0-.5,0-.8l1.9,1.4Zm4.7,3.5v.8h0a7.7,7.7,0,0,1-1.9-1.4c.2-.2.4-.3.4-.5s0-.5,0-.8,1.3,1,2,1.5S12.9,14.1,12.8,14.3ZM1.8,27.8h0c.3-.7.2-1.1-.4-1.1a7,7,0,0,1,2-1.6h0c0,.3-.1.6,0,.8s.2.3.4.4A7.5,7.5,0,0,1,1.8,27.8Zm4.7-3.6A.8.8,0,0,0,6.2,23a9.5,9.5,0,0,1,2-1.5c-.3.8-.2,1.1.4,1.2A9.1,9.1,0,0,1,6.5,24.2Zm4.8-3.5c0-.3.1-.6,0-.8s-.2-.3-.4-.5l2-1.4a2.5,2.5,0,0,0-.1.8,1,1,0,0,0,.5.4A13,13,0,0,1,11.3,20.7Zm2.8-.9h-.5a3.4,3.4,0,0,0,.4-1.2c0-.1,0-.3.1-.3h0Zm3.6,2.9a.8.8,0,0,0-.3.8c0,.4-.2.7-.5.7h0c-.4,0-.5-.3-.5-.7a1.1,1.1,0,0,0-.3-.8.9.9,0,0,1,.1-1.1.9.9,0,0,1,.7-.3h.3a.8.8,0,0,1,.6.9A.6.6,0,0,1,17.7,22.7Zm.9-3.1H15.2v-2l.3-1.1a1.5,1.5,0,0,1,2.6-.3c.1.1.3.2.3.4s.1.3.1.4a.9.9,0,0,1,.1.5.3.3,0,0,1-.1.2A12.1,12.1,0,0,1,18.6,19.6Zm4,.3c0,.2.1.5.1.8a13,13,0,0,1-2-1.5,1,1,0,0,0,.5-.4,2.5,2.5,0,0,0-.1-.8h0a5.9,5.9,0,0,1,2,1.5A1,1,0,0,0,22.6,19.9Zm4.8,3.6a1.2,1.2,0,0,0,.1.8,10,10,0,0,1-2-1.6c.5-.1.6-.4.3-1.2a9.5,9.5,0,0,1,2,1.5C27.7,23.2,27.4,23.3,27.4,23.5Zm4.8,4.3a9.5,9.5,0,0,1-2-1.5c.2-.1.4-.2.4-.4s0-.5,0-.9l2,1.6C32,26.7,32,27.3,32.2,27.8Z" transform="translate(0 -4.1)"/><path d="M33.6,27.2c0-.1-.1-.2-.1-.3a1.8,1.8,0,0,0-.7-1.5l-1.1-.9-.5-.4-.6-.2a1.1,1.1,0,0,0-.6.2l-.2.2-.5-.3c0-.1-.1-.1-.2-.2h-.2c0-.1-.1-.2-.1-.3a2.3,2.3,0,0,0-.8-1.7l-.9-.7-.6-.4-.7-.3a.5.5,0,0,0-.5.3h-.2a.5.5,0,0,1-.4-.2l-.5-.4c-.1,0-.2-.1-.2-.3a1.9,1.9,0,0,0-.7-1.6l-.8-.6-.7-.5a1.1,1.1,0,0,0-.7-.3,1,1,0,0,0-.8.4h0l-.5-.4h0c0-.2-.1-.3-.1-.4l.6-.5h0a1,1,0,0,0,.8.4l.7-.2,1.5-1.2a1.7,1.7,0,0,0,.7-1.6l.2-.3.8-.6.8.4a.8.8,0,0,0,.6-.2l1.3-.9.4-.4a1.4,1.4,0,0,0,.6-1.2.9.9,0,0,1,.5-.9h.2l.4-.3h0a.9.9,0,0,0,.8.4l.6-.2,1.6-1.2a2.1,2.1,0,0,0,.7-1.5c0-.3.1-.4.2-.4a.9.9,0,0,0,.3-.5V4.1h-.5l-.4.3h-.1a1,1,0,0,0-.7-.4.9.9,0,0,0-.6.3l-1.1.8-.5.4a2.2,2.2,0,0,0-.8,1.6c0,.1,0,.2-.1.2a1,1,0,0,1-.5.4l-.3.3h0a1.2,1.2,0,0,0-.8-.4l-.7.2L25.2,9.1a1.6,1.6,0,0,0-.6,1.3c0,.5-.2.7-.5.8l-.6.5a.9.9,0,0,0-.8-.4.7.7,0,0,0-.6.2l-1.2.9-.4.3a1.9,1.9,0,0,0-.7,1.2.8.8,0,0,1-.5.9l-.3.3a2.9,2.9,0,0,0-2.1-.9,3.2,3.2,0,0,0-1.9.7h-.1l-.6-.4v-.3a2,2,0,0,0-.8-1.7l-1-.7-.5-.4-.6-.2a.9.9,0,0,0-.8.4l-.6-.4L9.6,11c-.1,0-.1-.1-.1-.3a2.2,2.2,0,0,0-.7-1.6l-1-.7L7.2,8a.9.9,0,0,0-.7-.3,1.2,1.2,0,0,0-.8.4l-.9-.7V7.2a2.2,2.2,0,0,0-.7-1.6L2.4,4.4a.9.9,0,0,0-.6-.3.9.9,0,0,0-.6.3H.7a.2.2,0,0,0-.2-.2H.1V5.6a.2.2,0,0,0,.2.2c.2.1.3.1.3.6a1.7,1.7,0,0,0,.7,1.4L2.8,9a.7.7,0,0,0,.6.2,1.1,1.1,0,0,0,.8-.3h.1a1,1,0,0,0,.5.4.9.9,0,0,1,.5.9,1.4,1.4,0,0,0,.6,1.2l.2.2,1.5,1.1.6.2a1.3,1.3,0,0,0,.7-.4H9l.3.3h.3a1,1,0,0,1,.4.9,1.6,1.6,0,0,0,.6,1.2l1.7,1.2a.7.7,0,0,0,.6.2.9.9,0,0,0,.8-.4h0l.4.3c-.1.2-.1.5-.2.8s-.1.1-.2.2a1,1,0,0,0-.8-.4.9.9,0,0,0-.7.3l-1,.8-.5.3a2.3,2.3,0,0,0-.8,1.6v.3l-.9.7a1.2,1.2,0,0,0-.9-.4.7.7,0,0,0-.6.2l-.2.2-1.4,1a2.2,2.2,0,0,0-.7,1.6c0,.1-.1.2-.1.3l-.3.2c-.1.1-.2.1-.2.2H4.5l-.3.2H4a.6.6,0,0,0-.6-.3l-.6.2L1.2,25.3a2.1,2.1,0,0,0-.7,1.5.6.6,0,0,1-.2.5H.1c-.1.1-.1.1-.1.2V29H.6l.4-.3H1c.3.2.5.4.8.4a1.1,1.1,0,0,0,.7-.3l.6-.4.9-.7a2.5,2.5,0,0,0,.8-1.7v-.2l.9-.7a1.2,1.2,0,0,0,.8.4l.7-.2L8.8,24a1.6,1.6,0,0,0,.6-1.2.8.8,0,0,1,.5-.9l.3-.2.3-.2a1.2,1.2,0,0,0,.8.4,1.1,1.1,0,0,0,.7-.3l1-.8v3.9a1.1,1.1,0,0,0,.7,1,17.3,17.3,0,0,0,3.2.3l3.2-.3a1,1,0,0,0,.7-1v-4l.7.5.5.4.7.3a1.2,1.2,0,0,0,.8-.4l.5.3.4.3c.1.1.1.1.1.3a1.8,1.8,0,0,0,.7,1.5v.2l1.6,1.1.6.2.5-.2h.2l.4.2.3.2a.2.2,0,0,1,.2.2c.1,0,.1.1.1.2a2.5,2.5,0,0,0,.8,1.7l.9.6.6.5.7.3.5-.2.3-.2.4.2h0a.1.1,0,0,1,.1.1h.1a.1.1,0,0,1,.1.1h.2v-.8C34,27.9,34,27.4,33.6,27.2Zm.1.9v.7h-.1a.9.9,0,0,0-.6-.3.6.6,0,0,0-.5.2l-.3.2a.5.5,0,0,1-.5-.3l-1.5-1.1a1.8,1.8,0,0,1-.7-1.5.5.5,0,0,0-.2-.4l-.5-.4-.6-.3-.4.2H27a9.6,9.6,0,0,1-1.7-1.3,1.6,1.6,0,0,1-.5-1.3.6.6,0,0,0-.2-.5l-1-.6c0-.1,0-.1-.1-.1h-.1a1.1,1.1,0,0,1-.7.3l-.5-.2-1.5-1.1a2.1,2.1,0,0,1-.7-1.5c0-.2,0-.3-.2-.4h-.1v1.3a.5.5,0,0,0,.3.3c.4.1.5.3.5.7v4.1c0,.4-.1.6-.5.7a11,11,0,0,1-3.1.4,11,11,0,0,1-3.1-.4c-.4-.1-.5-.3-.5-.7V20.3h0l-1.5,1.1-.5.2a1.1,1.1,0,0,1-.7-.3h-.3l-.5.4a1.1,1.1,0,0,0-.6,1,1.4,1.4,0,0,1-.6,1.1L7,25l-.5.2a.9.9,0,0,1-.6-.3H5.6l-.9.7-.2.4a1.8,1.8,0,0,1-.7,1.5L2.3,28.5c-.1.2-.3.2-.5.2a.9.9,0,0,1-.6-.3H.8l-.6.4V27.6H.4c.2-.1.3-.3.4-.7a1.7,1.7,0,0,1,.5-1.3l1.6-1.2.5-.2a.5.5,0,0,1,.4.2c.2.2.3.2.4.2l.5-.2.6-.5c.1-.1.1-.2.2-.4A1.7,1.7,0,0,1,6.1,22l1.5-1.2.5-.2a.9.9,0,0,1,.7.3c0,.1.1.1.2.1h.1l.9-.7a.8.8,0,0,0,.2-.4,1.8,1.8,0,0,1,.6-1.5l1.5-1.1a.7.7,0,0,1,.6-.2.9.9,0,0,1,.6.3h.3l.4-.3a3.1,3.1,0,0,1,.2-1.1,1,1,0,0,1-.5-.4h-.4a.9.9,0,0,1-.6.3l-.5-.2-1.6-1.2a1.2,1.2,0,0,1-.5-1c0-.8-.4-.9-.7-1.2l-.4-.3H8.7a.5.5,0,0,1-.5.3H7.7L6,11.1a1.4,1.4,0,0,1-.5-1A1.2,1.2,0,0,0,4.9,9l-.5-.4H4a.9.9,0,0,1-.6.3L3,8.8,1.3,7.6A1.5,1.5,0,0,1,.8,6.4C.7,5.8.5,5.7.2,5.6V4.3l.4.2a.5.5,0,0,0,.4.3l.4-.2c.1-.2.2-.2.4-.2a.6.6,0,0,1,.5.2L3.9,5.8a1.7,1.7,0,0,1,.6,1.4.5.5,0,0,0,.2.4l.9.7h.3A.9.9,0,0,1,6.5,8a.7.7,0,0,1,.6.2L8.6,9.3a1.7,1.7,0,0,1,.6,1.4.6.6,0,0,0,.2.5l.9.7h.3a1.1,1.1,0,0,1,.7-.3l.5.2,1.5,1.1a2.1,2.1,0,0,1,.7,1.5c0,.2.1.4.2.4l.7.6.2-.2a3,3,0,0,1,1.8-.6,2.7,2.7,0,0,1,2,.9h.2l.3-.3a1,1,0,0,0,.7-1.1,1.4,1.4,0,0,1,.5-1l1.6-1.2.5-.2a.9.9,0,0,1,.6.3h.4l.5-.4a1.1,1.1,0,0,0,.6-1.1,1.4,1.4,0,0,1,.6-1.1L27,8.1h.5l.6.3h.3l.9-.7c.1,0,.2-.2.2-.4s.2-1.2.6-1.4l1.6-1.2.5-.2a.9.9,0,0,1,.6.3h.4l.5-.4a4.1,4.1,0,0,1,0,1.1l-.2.3c-.1.1-.2.2-.2.6a2.3,2.3,0,0,1-.6,1.3L31,8.8l-.4.2a.9.9,0,0,1-.6-.3l-.2-.2h-.2a1,1,0,0,1-.5.4,1.1,1.1,0,0,0-.6,1.1,1.2,1.2,0,0,1-.6,1l-1.6,1.3h-.5a.9.9,0,0,1-.6-.3h-.3l-.9.7c-.1,0-.2.2-.2.4a1.7,1.7,0,0,1-.6,1.4l-1.6,1.2-.5.2a.9.9,0,0,1-.6-.3h-.3l-.8.6a.8.8,0,0,0,.2.5V17l.6.5h.3a.9.9,0,0,1,.6-.3c.2,0,.4,0,.5.2l1.6,1.1a1.7,1.7,0,0,1,.6,1.4.6.6,0,0,0,.2.5l.5.4c.2.1.4.3.6.3l.4-.3h.3l.5.2,1.6,1.1a1.8,1.8,0,0,1,.6,1.5l.2.4.5.4a.9.9,0,0,0,.6.3.4.4,0,0,0,.4-.2.5.5,0,0,1,.4-.2l.5.2,1.6,1.3a2,2,0,0,1,.6,1.3.8.8,0,0,0,.2.5A.6.6,0,0,1,33.7,28.1Z" transform="translate(0 -4.1)"/><path d="M17.2,21.4h-.3a.9.9,0,0,0-.7.3.9.9,0,0,0-.1,1.1,1.1,1.1,0,0,1,.3.8c0,.4.1.7.5.7h0v-.2h-.2c-.1-.1-.1-.2-.1-.4a1.4,1.4,0,0,0-.3-1,.5.5,0,0,1,.1-.7l.5-.2h.2c.3.1.4.3.5.7h-.1v.2a1.3,1.3,0,0,0-.3,1h0c0,.4-.2.4-.3.4h0c.3,0,.5-.3.5-.7a.8.8,0,0,1,.3-.8.6.6,0,0,0,.1-.4A.8.8,0,0,0,17.2,21.4Z" transform="translate(0 -4.1)"/><path d="M18.5,17c0-.1-.1-.2-.1-.4s-.2-.3-.3-.4a1.5,1.5,0,0,0-2.6.3l-.3,1.1v2h3.4a12.1,12.1,0,0,0-.1-1.9.3.3,0,0,0,.1-.2A.9.9,0,0,0,18.5,17Zm-3,.6.2-1a1.2,1.2,0,0,1,1.2-.7,1.2,1.2,0,0,1,1,.4.8.8,0,0,1,.2.4c.1,0,.1.1.1.2s.1.1.1.2v.4h0v1.5H15.5Z" transform="translate(0 -4.1)"/><path d="M14,18.8a3.4,3.4,0,0,1-.4,1.2h.5V18.5h0C14,18.5,14,18.7,14,18.8Z" transform="translate(0 -4.1)"/><path d="M25.5,22.7a10,10,0,0,0,2,1.6,1.2,1.2,0,0,1-.1-.8c0-.2.3-.3.4-.5a9.5,9.5,0,0,0-2-1.5C26.1,22.3,26,22.6,25.5,22.7Zm.6-.1c.1-.1.1-.3.1-.6l1.3,1a.8.8,0,0,0-.4.4v.4l-1.2-1Z" transform="translate(0 -4.1)"/><path d="M30.6,25.9c0,.2-.2.3-.4.4a9.5,9.5,0,0,0,2,1.5c-.2-.5-.2-1.1.4-1.2l-2-1.6C30.6,25.4,30.7,25.7,30.6,25.9Zm1.3.9a.7.7,0,0,0-.1.5l-1.2-.9h0l.3-.3v-.4a9.4,9.4,0,0,1,1.2.9Z" transform="translate(0 -4.1)"/><path d="M21.1,18h0a2.5,2.5,0,0,1,.1.8,1,1,0,0,1-.5.4,13,13,0,0,0,2,1.5c0-.3-.1-.6-.1-.8a1,1,0,0,1,.5-.4A5.9,5.9,0,0,0,21.1,18Zm1.3,1.9v.3l-1.3-1c.1-.1.3-.2.3-.4s.1-.2,0-.4l1.3,1Z" transform="translate(0 -4.1)"/><path d="M12.8,18.8a2.5,2.5,0,0,1,.1-.8l-2,1.4c.2.2.4.3.4.5s0,.5,0,.8a13,13,0,0,0,2-1.5A1,1,0,0,1,12.8,18.8Zm-1.2,1.4v-.4l-.3-.4,1.3-.9c-.1.1-.1.2,0,.4s.2.2.3.3Z" transform="translate(0 -4.1)"/><path d="M3.4,25.9c-.1-.2,0-.5,0-.8h0a7,7,0,0,0-2,1.6c.6,0,.7.4.4,1.1h0a7.5,7.5,0,0,0,2-1.5C3.6,26.2,3.4,26.1,3.4,25.9ZM2.2,27.3a.7.7,0,0,0-.1-.5l-.3-.3,1.3-1V26l.3.4A6.2,6.2,0,0,1,2.2,27.3Z" transform="translate(0 -4.1)"/><path d="M8.2,21.5a9.5,9.5,0,0,0-2,1.5.8.8,0,0,1,.3,1.2,9.1,9.1,0,0,0,2.1-1.5C8,22.6,7.9,22.3,8.2,21.5Zm-.4.6a.9.9,0,0,0,.1.5l.2.2a4.7,4.7,0,0,1-1.2.9.9.9,0,0,0-.1-.5L6.6,23A9.4,9.4,0,0,1,7.8,22.1Z" transform="translate(0 -4.1)"/><path d="M30.6,7.2c.1.2,0,.5,0,.9a14,14,0,0,0,2-1.6c-.5-.1-.7-.4-.4-1.1h0a7.2,7.2,0,0,0-2,1.4C30.4,7,30.6,7,30.6,7.2Zm1.2-1.4a.7.7,0,0,0,.1.5l.2.3-1.2,1V7.2l-.3-.4A6.3,6.3,0,0,1,31.8,5.8Z" transform="translate(0 -4.1)"/><path d="M21.2,14.3a2.5,2.5,0,0,1-.1.8,5.9,5.9,0,0,0,2-1.5c-.4,0-.7-.4-.4-1.2a9.5,9.5,0,0,0-2,1.5C20.9,14.1,21.1,14.1,21.2,14.3ZM22.4,13a.4.4,0,0,0,.1.5l.2.2-1.3,1v-.4l-.3-.4A3.8,3.8,0,0,1,22.4,13Z" transform="translate(0 -4.1)"/><path d="M25.9,10.8c.1.2,0,.5,0,.8a12.5,12.5,0,0,0,1.9-1.5c-.1-.1-.4-.2-.4-.4s0-.5,0-.8l-2,1.4C25.6,10.5,25.8,10.6,25.9,10.8Zm1.2-1.4a.8.8,0,0,0,.1.4c0,.2.1.3.2.3l-1.2,1a.6.6,0,0,0-.1-.4c0-.2-.1-.3-.3-.4Z" transform="translate(0 -4.1)"/><path d="M11.3,13.2c0,.2-.2.3-.4.5a7.7,7.7,0,0,0,1.9,1.4h0v-.8c.1-.2.3-.2.5-.4s-1.3-1.1-2-1.5S11.4,13,11.3,13.2Zm1.3,1v.5a7.3,7.3,0,0,1-1.3-1l.3-.4v-.4l1.3,1Z" transform="translate(0 -4.1)"/><path d="M6.6,9.7c-.1.2-.3.3-.4.4a7.7,7.7,0,0,0,1.9,1.4h0c0-.2-.1-.5,0-.7l.4-.5L6.6,8.9C6.6,9.2,6.7,9.5,6.6,9.7Zm.2.1a.7.7,0,0,0,.1-.5l1.3,1a.5.5,0,0,0-.3.4.6.6,0,0,0-.1.4,6.4,6.4,0,0,1-1.3-1A.3.3,0,0,0,6.8,9.8Z" transform="translate(0 -4.1)"/><path d="M1.9,6.1c-.1.2-.3.3-.5.5a14.9,14.9,0,0,0,2,1.5c0-.4-.1-.7,0-.9s.2-.2.4-.4l-2-1.6C1.8,5.6,1.9,5.9,1.9,6.1ZM3.1,7.2v.4l-1.3-1c.1-.1.3-.2.3-.4s0-.3,0-.4l1.3,1Z" transform="translate(0 -4.1)"/></g></svg>